<svg xmlns="http://www.w3.org/2000/svg" viewBox="0 0 80 80"><defs><style>.cls-1{fill:#e3f8fa;}.cls-2{fill:#8ce1eb;}.cls-3{fill:#26c6da;}</style></defs><g id="Layer_2" data-name="Layer 2"><g id="bold"><path class="cls-1" d="M65,80H15A15,15,0,0,1,0,65V15A15,15,0,0,1,15,0H65A15,15,0,0,1,80,15V65A15,15,0,0,1,65,80Z"/><circle class="cls-2" cx="40" cy="45" r="3.33"/><path class="cls-2" d="M45.42,58.33H34.58a1.25,1.25,0,0,1-1.25-1.25v-2.5A4.59,4.59,0,0,1,37.92,50h4.16a4.59,4.59,0,0,1,4.59,4.58v2.5A1.25,1.25,0,0,1,45.42,58.33Z"/><path class="cls-2" d="M50.42,48.33H48.2a8.67,8.67,0,0,1,2.63,6.25V55h2.92A1.26,1.26,0,0,0,55,53.75v-.83A4.58,4.58,0,0,0,50.42,48.33Z"/><path class="cls-2" d="M29.58,48.33A4.58,4.58,0,0,0,25,52.92v.83A1.26,1.26,0,0,0,26.25,55h2.92v-.42a8.67,8.67,0,0,1,2.63-6.25Z"/><circle class="cls-2" cx="31.67" cy="43.33" r="3.33"/><circle class="cls-2" cx="48.33" cy="43.33" r="3.33"/><path class="cls-3" d="M24.25,47.13a8,8,0,0,1,1.37-1A6.57,6.57,0,0,1,25,43.33a6.64,6.64,0,0,1,11.83-4.16,6.4,6.4,0,0,1,6.34,0A6.64,6.64,0,0,1,54.38,46.1a8.18,8.18,0,0,1,.91.63,10.07,10.07,0,0,0-4.17-18.52,12.7,12.7,0,0,0-23.45,3.17,8.45,8.45,0,0,0-3.42,15.75Z"/></g></g></svg>