<svg xmlns="http://www.w3.org/2000/svg" viewBox="0 0 80 80"><defs><style>.cls-1{fill:#f5e6fe;}.cls-2{fill:#d9a4fc;}.cls-3{fill:#be63f9;}</style></defs><g id="Layer_2" data-name="Layer 2"><g id="bold"><path class="cls-1" d="M65,80H15A15,15,0,0,1,0,65V15A15,15,0,0,1,15,0H65A15,15,0,0,1,80,15V65A15,15,0,0,1,65,80Z"/><path class="cls-2" d="M40,38.33c-3.85,0-8.33-.87-8.33-3.33s4.49-3.33,8.33-3.33,8.33.87,8.33,3.33S43.85,38.33,40,38.33Z"/><path class="cls-3" d="M42.72,60H37.28a3.28,3.28,0,0,1-3.18-2.55l-.64-2.83A15,15,0,0,1,30.57,53l-2.77.87A3.3,3.3,0,0,1,24,52.33l-2.7-4.67a3.28,3.28,0,0,1,.6-4l2.15-2a17.26,17.26,0,0,1,0-3.32l-2.13-2a3.26,3.26,0,0,1-.63-4L24,27.65a3.27,3.27,0,0,1,3.8-1.47l2.78.87a15,15,0,0,1,2.9-1.67l.64-2.84A3.26,3.26,0,0,1,37.28,20h5.44a3.28,3.28,0,0,1,3.18,2.55l.64,2.82a15.54,15.54,0,0,1,2.89,1.68l2.77-.87A3.29,3.29,0,0,1,56,27.67l2.7,4.67a3.28,3.28,0,0,1-.6,4l-2.15,2c.05.56.08,1.11.08,1.66A15.62,15.62,0,0,1,56,41.66l2.13,2h0a3.28,3.28,0,0,1,.61,4L56,52.35a3.27,3.27,0,0,1-3.8,1.47L49.43,53a15,15,0,0,1-2.9,1.67l-.64,2.84A3.26,3.26,0,0,1,42.72,60ZM30.9,49.43a1.63,1.63,0,0,1,1.05.38,12.25,12.25,0,0,0,3.52,2A1.67,1.67,0,0,1,36.52,53l.83,3.68,5.37,0L43.48,53a1.67,1.67,0,0,1,1.05-1.2,12.07,12.07,0,0,0,3.51-2,1.7,1.7,0,0,1,1.56-.31l3.6,1.14L55.82,46l-2.73-2.5a1.68,1.68,0,0,1-.52-1.48,13.41,13.41,0,0,0,0-4.13,1.66,1.66,0,0,1,.52-1.47l2.77-2.54-2.73-4.6L49.6,30.49a1.66,1.66,0,0,1-1.56-.3,12.1,12.1,0,0,0-3.51-2A1.64,1.64,0,0,1,43.48,27l-.84-3.69-5.36.06L36.52,27a1.64,1.64,0,0,1-1.05,1.19,12.28,12.28,0,0,0-3.52,2,1.64,1.64,0,0,1-1.55.3l-3.6-1.13L24.15,34l2.76,2.44a1.68,1.68,0,0,1,.52,1.48,13.41,13.41,0,0,0,0,4.13,1.65,1.65,0,0,1-.52,1.47l-2.77,2.54,2.73,4.6,3.53-1.16a1.42,1.42,0,0,1,.5-.08Z"/><path class="cls-2" d="M40,40.83c-3.63,0-6.47-.63-8.33-1.77V40c0,2.46,4.49,3.33,8.33,3.33s8.33-.87,8.33-3.33v-.94C46.47,40.2,43.63,40.83,40,40.83Z"/><path class="cls-2" d="M40,45.83c-3.63,0-6.47-.63-8.33-1.77V45c0,2.46,4.49,3.33,8.33,3.33s8.33-.87,8.33-3.33v-.94C46.47,45.2,43.63,45.83,40,45.83Z"/></g></g></svg>