<svg xmlns="http://www.w3.org/2000/svg" viewBox="0 0 798 50" width="798" height="50"><path d="M7.8 21.53c6.718 4.552 4.124 9.563 2.3 14.87-.47 1.34-.87 2.68-1.22 4C3.835 35.042.749 28.13.128 20.796-.493 13.462 1.387 6.13 5.46 0c5.642 6.185 9.855 13.536 12.34 21.53zm14.48 22.54c-.111 1.988-.334 3.968-.67 5.93-2.089-.91-4.076-2.036-5.93-3.36 2.288-.611 4.501-1.473 6.6-2.57z" fill="#89dd9f"/><path d="M22.4 38.45c0 1.2 0 2.41-.12 3.59-2.099 1.094-4.312 1.953-6.6 2.56-1.731-1.216-3.327-2.614-4.76-4.17.34-1.35.75-2.69 1.22-4 1.82-5.309 4.415-10.32 7.7-14.87 1.704 5.468 2.567 11.163 2.56 16.89z" fill="#f44336"/><path d="M49.973 21.53c6.545 4.552 3.951 9.563 2.127 14.87-.47 1.34-.87 2.68-1.22 4-5.045-5.358-8.131-12.27-8.752-19.604C41.507 13.462 43.387 6.13 47.46 0c5.642 6.185 9.855 13.536 12.34 21.53zM64.28 44.07c-.111 1.988-.334 3.968-.67 5.93-2.089-.91-4.076-2.036-5.93-3.36 2.288-.611 4.501-1.473 6.6-2.57z" fill="#88dd9e"/><path d="M64.4 38.45c0 1.2 0 2.41-.12 3.59-2.099 1.094-4.312 1.953-6.6 2.56-1.731-1.216-3.327-2.614-4.76-4.17.34-1.35.75-2.69 1.22-4 1.82-5.309 4.415-10.32 7.7-14.87 1.704 5.468 2.567 11.163 2.56 16.89z" fill="#f4493c"/><path d="M92.651 21.53c5.867 4.552 3.273 9.563 1.449 14.87-.47 1.34-.87 2.68-1.22 4-5.045-5.358-8.131-12.27-8.752-19.604C83.507 13.462 85.387 6.13 89.46 0c5.642 6.185 9.855 13.536 12.34 21.53zm13.629 22.54c-.111 1.988-.334 3.968-.67 5.93-2.089-.91-4.076-2.036-5.93-3.36 2.288-.611 4.501-1.473 6.6-2.57z" fill="#82db99"/><path d="M106.4 38.45c0 1.2 0 2.41-.12 3.59-2.099 1.094-4.312 1.953-6.6 2.56-1.731-1.216-3.327-2.614-4.76-4.17.34-1.35.75-2.69 1.22-4 1.82-5.309 4.415-10.32 7.7-14.87 1.704 5.468 2.567 11.163 2.56 16.89z" fill="#f66257"/><path d="M136.166 21.53c4.352 4.552 1.758 9.563-.066 14.87-.47 1.34-.87 2.68-1.22 4-5.045-5.358-8.131-12.27-8.752-19.604-.621-7.334 1.259-14.666 5.332-20.796 5.642 6.185 9.855 13.536 12.34 21.53zm12.114 22.54c-.111 1.988-.334 3.968-.67 5.93-2.089-.91-4.076-2.036-5.93-3.36 2.288-.611 4.501-1.473 6.6-2.57z" fill="#76d78f"/><path d="M148.4 38.45c0 1.2 0 2.41-.12 3.59-2.099 1.094-4.312 1.953-6.6 2.56-1.731-1.216-3.327-2.614-4.76-4.17.34-1.35.75-2.69 1.22-4 1.82-5.309 4.415-10.32 7.7-14.87 1.704 5.468 2.567 11.163 2.56 16.89z" fill="#f7786f"/><path d="M180.373 21.53c2.145 4.552-.449 9.563-2.273 14.87-.47 1.34-.87 2.68-1.22 4-5.045-5.358-8.131-12.27-8.752-19.604-.621-7.334 1.259-14.666 5.332-20.796 5.642 6.185 9.855 13.536 12.34 21.53zm9.907 22.54c-.111 1.988-.334 3.968-.67 5.93-2.089-.91-4.076-2.036-5.93-3.36 2.288-.611 4.501-1.473 6.6-2.57z" fill="#64d180"/><path d="M190.4 38.45c0 1.2 0 2.41-.12 3.59-2.099 1.094-4.312 1.953-6.6 2.56-1.731-1.216-3.327-2.614-4.76-4.17.34-1.35.75-2.69 1.22-4 1.82-5.309 4.415-10.32 7.7-14.87 1.704 5.468 2.567 11.163 2.56 16.89z" fill="#f88279"/><path d="M224.262 21.53c.256 4.552-2.338 9.563-4.162 14.87-.47 1.34-.87 2.68-1.22 4-5.045-5.358-8.131-12.27-8.752-19.604-.621-7.334 1.259-14.666 5.332-20.796 5.642 6.185 9.855 13.536 12.34 21.53zm8.018 22.54c-.111 1.988-.334 3.968-.67 5.93-2.089-.91-4.076-2.036-5.93-3.36 2.288-.611 4.501-1.473 6.6-2.57z" fill="#54cc73"/><path d="M232.4 38.45c0 1.2 0 2.41-.12 3.59-2.099 1.094-4.312 1.953-6.6 2.56-1.731-1.216-3.327-2.614-4.76-4.17.34-1.35.75-2.69 1.22-4 1.82-5.309 4.415-10.32 7.7-14.87 1.704 5.468 2.567 11.163 2.56 16.89z" fill="#f8867e"/><path d="M267.556 21.53c-1.038 4.552-3.632 9.563-5.456 14.87-.47 1.34-.87 2.68-1.22 4-5.045-5.358-8.131-12.27-8.752-19.604-.621-7.334 1.259-14.666 5.332-20.796 5.642 6.185 9.855 13.536 12.34 21.53zm6.724 22.54c-.111 1.988-.334 3.968-.67 5.93-2.089-.91-4.076-2.036-5.93-3.36 2.288-.611 4.501-1.473 6.6-2.57z" fill="#49c86a"/><path d="M274.4 38.45c0 1.2 0 2.41-.12 3.59-2.099 1.094-4.312 1.953-6.6 2.56-1.731-1.216-3.327-2.614-4.76-4.17.34-1.35.75-2.69 1.22-4 1.82-5.309 4.415-10.32 7.7-14.87 1.704 5.468 2.567 11.163 2.56 16.89z" fill="#f8877f"/><path d="M310.424 21.53c-1.906 4.552-4.5 9.563-6.324 14.87-.47 1.34-.87 2.68-1.22 4-5.045-5.358-8.131-12.27-8.752-19.604-.621-7.334 1.259-14.666 5.332-20.796 5.642 6.185 9.855 13.536 12.34 21.53zm5.856 22.54c-.111 1.988-.334 3.968-.67 5.93-2.089-.91-4.076-2.036-5.93-3.36 2.288-.611 4.501-1.473 6.6-2.57z" fill="#42c664"/><path d="M316.4 38.45c0 1.2 0 2.41-.12 3.59-2.099 1.094-4.312 1.953-6.6 2.56-1.731-1.216-3.327-2.614-4.76-4.17.34-1.35.75-2.69 1.22-4 1.82-5.309 4.415-10.32 7.7-14.87 1.704 5.468 2.567 11.163 2.56 16.89z" fill="#f88179"/><path d="M353.008 21.53c-2.49 4.552-5.084 9.563-6.908 14.87-.47 1.34-.87 2.68-1.22 4-5.045-5.358-8.131-12.27-8.752-19.604-.621-7.334 1.259-14.666 5.332-20.796 5.642 6.185 9.855 13.536 12.34 21.53zm5.272 22.54c-.111 1.988-.334 3.968-.67 5.93-2.089-.91-4.076-2.036-5.93-3.36 2.288-.611 4.501-1.473 6.6-2.57z" fill="#3dc460"/><path d="M358.4 38.45c0 1.2 0 2.41-.12 3.59-2.099 1.094-4.312 1.953-6.6 2.56-1.731-1.216-3.327-2.614-4.76-4.17.34-1.35.75-2.69 1.22-4 1.82-5.309 4.415-10.32 7.7-14.87 1.704 5.468 2.567 11.163 2.56 16.89z" fill="#f6685e"/><path d="M395.394 21.53c-2.876 4.552-5.47 9.563-7.294 14.87-.47 1.34-.87 2.68-1.22 4-5.045-5.358-8.131-12.27-8.752-19.604-.621-7.334 1.259-14.666 5.332-20.796 5.642 6.185 9.855 13.536 12.34 21.53zm4.886 22.54c-.111 1.988-.334 3.968-.67 5.93-2.089-.91-4.076-2.036-5.93-3.36 2.288-.611 4.501-1.473 6.6-2.57z" fill="#3ac35e"/><path d="M400.4 38.45c0 1.2 0 2.41-.12 3.59-2.099 1.094-4.312 1.953-6.6 2.56-1.731-1.216-3.327-2.614-4.76-4.17.34-1.35.75-2.69 1.22-4 1.82-5.309 4.415-10.32 7.7-14.87 1.704 5.468 2.567 11.163 2.56 16.89z" fill="#f55246"/><g><path d="M437.634 21.53c-3.116 4.552-5.71 9.563-7.534 14.87-.47 1.34-.87 2.68-1.22 4-5.045-5.358-8.131-12.27-8.752-19.604-.621-7.334 1.259-14.666 5.332-20.796 5.642 6.185 9.855 13.536 12.34 21.53zm4.646 22.54c-.111 1.988-.334 3.968-.67 5.93-2.089-.91-4.076-2.036-5.93-3.36 2.288-.611 4.501-1.473 6.6-2.57z" fill="#38c25c"/><path d="M442.4 38.45c0 1.2 0 2.41-.12 3.59-2.099 1.094-4.312 1.953-6.6 2.56-1.731-1.216-3.327-2.614-4.76-4.17.34-1.35.75-2.69 1.22-4 1.82-5.309 4.415-10.32 7.7-14.87 1.704 5.468 2.567 11.163 2.56 16.89z" fill="#f4483c"/></g><g><path d="M479.761 21.53c-3.243 4.552-5.837 9.563-7.661 14.87-.47 1.34-.87 2.68-1.22 4-5.045-5.358-8.131-12.27-8.752-19.604-.621-7.334 1.259-14.666 5.332-20.796 5.642 6.185 9.855 13.536 12.34 21.53zm4.519 22.54c-.111 1.988-.334 3.968-.67 5.93-2.089-.91-4.076-2.036-5.93-3.36 2.288-.611 4.501-1.473 6.6-2.57z" fill="#37c25b"/><path d="M484.4 38.45c0 1.2 0 2.41-.12 3.59-2.099 1.094-4.312 1.953-6.6 2.56-1.731-1.216-3.327-2.614-4.76-4.17.34-1.35.75-2.69 1.22-4 1.82-5.309 4.415-10.32 7.7-14.87 1.704 5.468 2.567 11.163 2.56 16.89z" fill="#f44437"/><path d="M472.489 45.586c-1.927.519-.738 1.907-2.729 2.054.283-1.758-.256-.269.207-1.989 1.434 1.573.785-1.297 2.522-.065zM502.06 21.73c-2.703 7.884 1.513 2.08-5.884 5.92.08-1.18-4.63 1.182-4.63-.018.007-5.741 9.234-6.225 7.524-11.705 4.986-6.888-3.749-9.011 3.72-13.077 1.628 6.226 1.374 12.798-.73 18.88z" fill="#37c25b" fill-opacity=".002475"/></g><g><path d="M521.8 21.53c-3.282 4.552-5.876 9.563-7.7 14.87-.47 1.34-.87 2.68-1.22 4-5.045-5.358-8.131-12.27-8.752-19.604-.621-7.334 1.259-14.666 5.332-20.796 5.642 6.185 9.855 13.536 12.34 21.53zm4.48 22.54c-.111 1.988-.334 3.968-.67 5.93-2.089-.91-4.076-2.036-5.93-3.36 2.288-.611 4.501-1.473 6.6-2.57z" fill="#37c25b"/><path d="M526.4 38.45c0 1.2 0 2.41-.12 3.59-2.099 1.094-4.312 1.953-6.6 2.56-1.731-1.216-3.327-2.614-4.76-4.17.34-1.35.75-2.69 1.22-4 1.82-5.309 4.415-10.32 7.7-14.87 1.704 5.468 2.567 11.163 2.56 16.89z" fill="#f44336"/><path d="M514.905 45.725c-1.927.519-1.154 1.768-3.145 1.915.283-1.758-.136-.694.327-2.414 1.434 1.573 1.081-.733 2.818.499zM544.06 21.73c-2.703 7.884.214 3.707-7.183 7.547.08-1.18-4.004.713-4.004-.487.007-5.741 7.904-6.913 6.194-12.393 4.986-6.888-1.746-9.481 5.723-13.547 1.628 6.226 1.374 12.798-.73 18.88z" fill="#37c25b" fill-opacity=".133947"/></g><g><path d="M563.8 21.53c-3.282 4.552-5.876 9.563-7.7 14.87-.47 1.34-.87 2.68-1.22 4-5.045-5.358-8.131-12.27-8.752-19.604-.621-7.334 1.259-14.666 5.332-20.796 5.642 6.185 9.855 13.536 12.34 21.53zm4.48 22.54c-.111 1.988-.334 3.968-.67 5.93-2.089-.91-4.076-2.036-5.93-3.36 2.288-.611 4.501-1.473 6.6-2.57z" fill="#37c25b"/><path d="M568.4 38.45c0 1.2 0 2.41-.12 3.59-2.099 1.094-4.312 1.953-6.6 2.56-1.731-1.216-3.327-2.614-4.76-4.17.34-1.35.75-2.69 1.22-4 1.82-5.309 4.415-10.32 7.7-14.87 1.704 5.468 2.567 11.163 2.56 16.89z" fill="#f4493c"/><path d="M558.194 46.155c-1.927.519-2.443 1.338-4.434 1.485.283-1.758.236-2.011.699-3.731 1.434 1.573 1.998 1.014 3.735 2.246zM586.06 21.73c-2.703 7.884-3.802 8.74-11.199 12.58.08-1.18-2.069-.738-2.069-1.938.007-5.741 3.791-9.043 2.081-14.523 4.986-6.888 4.448-10.933 11.917-14.999 1.628 6.226 1.374 12.798-.73 18.88z" fill="#37c25b" fill-opacity=".540455"/></g><g><path d="M605.8 21.53c-3.282 4.552-5.876 9.563-7.7 14.87-.47 1.34-.87 2.68-1.22 4-5.045-5.358-8.131-12.27-8.752-19.604-.621-7.334 1.259-14.666 5.332-20.796 5.642 6.185 9.855 13.536 12.34 21.53zm4.48 22.54c-.111 1.988-.334 3.968-.67 5.93-2.089-.91-4.076-2.036-5.93-3.36 2.288-.611 4.501-1.473 6.6-2.57z" fill="#37c25b"/><path d="M610.4 38.45c0 1.2 0 2.41-.12 3.59-2.099 1.094-4.312 1.953-6.6 2.56-1.731-1.216-3.327-2.614-4.76-4.17.34-1.35.75-2.69 1.22-4 1.82-5.309 4.415-10.32 7.7-14.87 1.704 5.468 2.567 11.163 2.56 16.89z" fill="#f66257"/><path d="M601.062 46.444c-1.927.519-3.311 1.049-5.302 1.196.283-1.758.487-2.899.95-4.619 1.434 1.573 2.615 2.191 4.352 3.423zM628.06 21.73c-2.703 7.884-6.509 12.132-13.906 15.972.08-1.18-.764-1.717-.764-2.917.007-5.741 1.018-10.478-.692-15.958 4.986-6.888 8.623-11.911 16.092-15.977 1.628 6.226 1.374 12.798-.73 18.88z" fill="#37c25b" fill-opacity=".814432"/></g><g><path d="M647.8 21.53c-3.282 4.552-5.876 9.563-7.7 14.87-.47 1.34-.87 2.68-1.22 4-5.045-5.358-8.131-12.27-8.752-19.604-.621-7.334 1.259-14.666 5.332-20.796 5.642 6.185 9.855 13.536 12.34 21.53zm4.48 22.54c-.111 1.988-.334 3.968-.67 5.93-2.089-.91-4.076-2.036-5.93-3.36 2.288-.611 4.501-1.473 6.6-2.57z" fill="#37c25b"/><path d="M652.4 38.45c0 1.2 0 2.41-.12 3.59-2.099 1.094-4.312 1.953-6.6 2.56-1.731-1.216-3.327-2.614-4.76-4.17.34-1.35.75-2.69 1.22-4 1.82-5.309 4.415-10.32 7.7-14.87 1.704 5.468 2.567 11.163 2.56 16.89z" fill="#f7786f"/><path d="M643.454 46.575c-1.927.519-3.703.918-5.694 1.065.283-1.758.6-3.3 1.063-5.02 1.434 1.573 2.894 2.723 4.631 3.955zM670.06 21.73c-2.703 7.884-7.733 13.665-15.13 17.505.08-1.18-.174-2.159-.174-3.359.007-5.741-.235-11.127-1.945-16.607 4.986-6.888 10.51-12.353 17.979-16.419 1.628 6.226 1.374 12.798-.73 18.88z" fill="#37c25b" fill-opacity=".938245"/></g><g><path d="M689.8 21.53c-3.282 4.552-5.876 9.563-7.7 14.87-.47 1.34-.87 2.68-1.22 4-5.045-5.358-8.131-12.27-8.752-19.604-.621-7.334 1.259-14.666 5.332-20.796 5.642 6.185 9.855 13.536 12.34 21.53zm4.48 22.54c-.111 1.988-.334 3.968-.67 5.93-2.089-.91-4.076-2.036-5.93-3.36 2.288-.611 4.501-1.473 6.6-2.57z" fill="#37c25b"/><path d="M694.4 38.45c0 1.2 0 2.41-.12 3.59-2.099 1.094-4.312 1.953-6.6 2.56-1.731-1.216-3.327-2.614-4.76-4.17.34-1.35.75-2.69 1.22-4 1.82-5.309 4.415-10.32 7.7-14.87 1.704 5.468 2.567 11.163 2.56 16.89z" fill="#f88279"/><path d="M685.617 46.629c-1.927.519-3.866.864-5.857 1.011.283-1.758.648-3.467 1.111-5.187 1.434 1.573 3.009 2.944 4.746 4.176zM712.06 21.73c-2.703 7.884-8.241 14.302-15.638 18.142.08-1.18.071-2.343.071-3.543.007-5.741-.756-11.396-2.466-16.876 4.986-6.888 11.294-12.537 18.763-16.603 1.628 6.226 1.374 12.798-.73 18.88z" fill="#37c25b" fill-opacity=".989667"/></g><g><path d="M731.8 21.53c-3.282 4.552-5.876 9.563-7.7 14.87-.47 1.34-.87 2.68-1.22 4-5.045-5.358-8.131-12.27-8.752-19.604-.621-7.334 1.259-14.666 5.332-20.796 5.642 6.185 9.855 13.536 12.34 21.53zm4.48 22.54c-.111 1.988-.334 3.968-.67 5.93-2.089-.91-4.076-2.036-5.93-3.36 2.288-.611 4.501-1.473 6.6-2.57z" fill="#37c25b"/><path d="M736.4 38.45c0 1.2 0 2.41-.12 3.59-2.099 1.094-4.312 1.953-6.6 2.56-1.731-1.216-3.327-2.614-4.76-4.17.34-1.35.75-2.69 1.22-4 1.82-5.309 4.415-10.32 7.7-14.87 1.704 5.468 2.567 11.163 2.56 16.89z" fill="#f8867e"/><path d="M727.65 46.64c-1.927.519-3.899.853-5.89 1 .283-1.758.657-3.5 1.12-5.22 1.434 1.573 3.033 2.988 4.77 4.22zm26.41-24.91c-2.703 7.884-8.343 14.43-15.74 18.27.08-1.18.12-2.38.12-3.58.007-5.741-.86-11.45-2.57-16.93 4.986-6.888 11.451-12.574 18.92-16.64 1.628 6.226 1.374 12.798-.73 18.88z" fill="#37c25b"/></g><g><path d="M773.8 21.53c-3.282 4.552-5.876 9.563-7.7 14.87-.47 1.34-.87 2.68-1.22 4-5.045-5.358-8.131-12.27-8.752-19.604-.621-7.334 1.259-14.666 5.332-20.796 5.642 6.185 9.855 13.536 12.34 21.53zm4.48 22.54c-.111 1.988-.334 3.968-.67 5.93-2.089-.91-4.076-2.036-5.93-3.36 2.288-.611 4.501-1.473 6.6-2.57z" fill="#37c25b"/><path d="M778.4 38.45c0 1.2 0 2.41-.12 3.59-2.099 1.094-4.312 1.953-6.6 2.56-1.731-1.216-3.327-2.614-4.76-4.17.34-1.35.75-2.69 1.22-4 1.82-5.309 4.415-10.32 7.7-14.87 1.704 5.468 2.567 11.163 2.56 16.89z" fill="#f8877f"/><path d="M769.65 46.64c-1.927.519-3.899.853-5.89 1 .283-1.758.657-3.5 1.12-5.22 1.434 1.573 3.033 2.988 4.77 4.22zm26.41-24.91c-2.703 7.884-8.343 14.43-15.74 18.27.08-1.18.12-2.38.12-3.58.007-5.741-.86-11.45-2.57-16.93 4.986-6.888 11.451-12.574 18.92-16.64 1.628 6.226 1.374 12.798-.73 18.88z" fill="#37c25b"/></g></svg>