<svg xmlns="http://www.w3.org/2000/svg" viewBox="0 0 41.85 50"><defs><style>.cls-1{fill:#37c25b;}.cls-2{fill:#89dd9f;}</style></defs><g id="Layer_2" data-name="Layer 2"><g id="Layer_1-2" data-name="Layer 1"><path class="cls-1" d="M17.8,21.53A57.25,57.25,0,0,0,10.1,36.4c-.47,1.34-.87,2.68-1.22,4A32.61,32.61,0,0,1,5.46,0,57.08,57.08,0,0,1,17.8,21.53Z"/><path class="cls-1" d="M22.28,44.07A52.46,52.46,0,0,1,21.61,50a32.61,32.61,0,0,1-5.93-3.36A32.14,32.14,0,0,0,22.28,44.07Z"/><path class="cls-2" d="M22.4,38.45c0,1.2,0,2.41-.12,3.59a32.1,32.1,0,0,1-6.6,2.56,29.59,29.59,0,0,1-4.76-4.17c.34-1.35.75-2.69,1.22-4a56.94,56.94,0,0,1,7.7-14.87A56.53,56.53,0,0,1,22.4,38.45Z"/><path class="cls-1" d="M13.65,46.64a31.59,31.59,0,0,1-5.89,1,51.76,51.76,0,0,1,1.12-5.22A29.72,29.72,0,0,0,13.65,46.64Z"/><path class="cls-1" d="M40.06,21.73A32.44,32.44,0,0,1,24.32,40c.08-1.18.12-2.38.12-3.58a56.6,56.6,0,0,0-2.57-16.93A57,57,0,0,1,40.79,2.85,32.56,32.56,0,0,1,40.06,21.73Z"/></g></g></svg>