<svg xmlns="http://www.w3.org/2000/svg" viewBox="0 0 80 80"><defs><style>.cls-1{fill:#fff9dd;}.cls-2{fill:#ffe777;}.cls-3{fill:#ffd200;}</style></defs><g id="Layer_2" data-name="Layer 2"><g id="bold"><path class="cls-1" d="M65,80H15A15,15,0,0,1,0,65V15A15,15,0,0,1,15,0H65A15,15,0,0,1,80,15V65A15,15,0,0,1,65,80Z"/><path class="cls-2" d="M54.33,52.08a1.25,1.25,0,0,1-1.22-1.52l2.22-10a1.25,1.25,0,1,1,2.44.54l-2.22,10a1.23,1.23,0,0,1-1.21,1Z"/><path class="cls-2" d="M29.17,56.38a1.25,1.25,0,0,1-.06-2.5l21.66-1.06a1.25,1.25,0,0,1,.13,2.49L29.23,56.38Z"/><path class="cls-2" d="M23.22,38.92a1.32,1.32,0,0,1-.54-.12,1.25,1.25,0,0,1-.59-1.67L27.8,25.05a1.25,1.25,0,1,1,2.26,1.07L24.34,38.2A1.25,1.25,0,0,1,23.22,38.92Z"/><path class="cls-2" d="M23.56,52.35a1.24,1.24,0,0,1-1.24-1.19l-.5-10.38a1.25,1.25,0,1,1,2.49-.12L24.81,51a1.25,1.25,0,0,1-1.19,1.31Z"/><path class="cls-2" d="M55.32,37.5a1.25,1.25,0,0,1-1-.57L47.35,26.25a1.25,1.25,0,1,1,2.1-1.36l6.92,10.68A1.26,1.26,0,0,1,56,37.3,1.31,1.31,0,0,1,55.32,37.5Z"/><path class="cls-2" d="M45.83,25.33h-.06L32.42,24.7a1.26,1.26,0,0,1-1.19-1.31,1.31,1.31,0,0,1,1.31-1.19l13.35.63a1.25,1.25,0,0,1-.06,2.5Z"/><path class="cls-2" d="M51.82,53.07a1.29,1.29,0,0,1-.89-.37l-6.27-6.27a1.25,1.25,0,0,1,1.77-1.76l6.27,6.26a1.26,1.26,0,0,1-.88,2.14Z"/><path class="cls-2" d="M37.34,36.42a1.25,1.25,0,0,1-1.07-.6l-6-9.71a1.25,1.25,0,0,1,2.13-1.32l6,9.72a1.24,1.24,0,0,1-.4,1.72,1.2,1.2,0,0,1-.65.19Z"/><path class="cls-2" d="M27.75,53.13a1.29,1.29,0,0,1-1-.53A1.26,1.26,0,0,1,27,50.86l8.69-6a1.24,1.24,0,0,1,1.74.31,1.26,1.26,0,0,1-.31,1.74l-8.69,6A1.22,1.22,0,0,1,27.75,53.13Z"/><path class="cls-2" d="M43.3,35.9a1.31,1.31,0,0,1-.47-.09,1.25,1.25,0,0,1-.69-1.63l3.58-8.93a1.25,1.25,0,0,1,1.63-.69A1.24,1.24,0,0,1,48,26.18l-3.58,8.93a1.26,1.26,0,0,1-1.16.79Z"/><path class="cls-2" d="M47.41,41.05a1.25,1.25,0,0,1-.19-2.48L54,37.48A1.25,1.25,0,1,1,54.39,40L47.61,41Z"/><path class="cls-2" d="M34.2,41.48h-.11L24,40.56a1.25,1.25,0,0,1,.23-2.49l10,.92a1.25,1.25,0,0,1-.11,2.49Z"/><path class="cls-3" d="M40.83,48.33a7.5,7.5,0,1,1,7.5-7.5A7.51,7.51,0,0,1,40.83,48.33Z"/><path class="cls-3" d="M25,60a5,5,0,1,1,5-5A5,5,0,0,1,25,60Z"/><path class="cls-3" d="M30,26.67a3.34,3.34,0,1,1,3.33-3.34A3.34,3.34,0,0,1,30,26.67Z"/><path class="cls-3" d="M54.17,58.33a4.17,4.17,0,1,1,4.16-4.16A4.17,4.17,0,0,1,54.17,58.33Z"/><circle class="cls-3" cx="47.5" cy="24.17" r="2.5"/><path class="cls-3" d="M56.67,41.67A3.34,3.34,0,1,1,60,38.33,3.35,3.35,0,0,1,56.67,41.67Z"/><circle class="cls-3" cx="22.5" cy="39.17" r="2.5"/></g></g></svg>