<svg xmlns="http://www.w3.org/2000/svg" viewBox="0 0 112.57 50"><defs><style>.cls-1{fill:#353535;}.cls-2{fill:#37c25b;}.cls-3{fill:#89dd9f;}</style></defs><g id="Layer_2" data-name="Layer 2"><g id="Layer_1-2" data-name="Layer 1"><path class="cls-1" d="M65.67,19.15h1.92L65.05,33.54a8,8,0,0,1-2.9,5.15,8.88,8.88,0,0,1-5.65,1.82,8.21,8.21,0,0,1-4.08-1,5.88,5.88,0,0,1-2.52-2.7l1.77-.9q1.08,2.64,4.92,2.64A7,7,0,0,0,61,37.27a5.77,5.77,0,0,0,2.11-3.72l.36-2a7.85,7.85,0,0,1-6.33,3,6.34,6.34,0,0,1-5.27-2.37,7.21,7.21,0,0,1-1.36-5.79,8.35,8.35,0,0,1,3-5.5,8.57,8.57,0,0,1,5.54-2.06,7.21,7.21,0,0,1,3.56.92,5.73,5.73,0,0,1,2.44,2.66Zm-1.36,7.7v-.06l0-.15a4.7,4.7,0,0,0-1.14-4.33,5.33,5.33,0,0,0-3.94-1.6,6.79,6.79,0,0,0-4.33,1.58,6.43,6.43,0,0,0-2.42,4.21,5.24,5.24,0,0,0,1,4.35,4.88,4.88,0,0,0,4,1.74A6.68,6.68,0,0,0,61.88,31,6.94,6.94,0,0,0,64.31,26.85Z"/><path class="cls-1" d="M74.68,34.51a6.85,6.85,0,0,1-5.23-2.19A6.43,6.43,0,0,1,68,26.5a8.61,8.61,0,0,1,3.38-5.67,9.72,9.72,0,0,1,5.92-2A6.59,6.59,0,0,1,82.41,21a6.49,6.49,0,0,1,1.36,5.78,9,9,0,0,1-1.89,4.32,8.91,8.91,0,0,1-3.31,2.61A9.58,9.58,0,0,1,74.68,34.51Zm.18-1.92A7.07,7.07,0,0,0,79.3,31a6.83,6.83,0,0,0,2.52-4.44,4.7,4.7,0,0,0-1-4.29A5.09,5.09,0,0,0,77,20.71a7.24,7.24,0,0,0-4.42,1.59A6.81,6.81,0,0,0,70,26.65,4.87,4.87,0,0,0,71,31,4.92,4.92,0,0,0,74.86,32.59Z"/><path class="cls-1" d="M89.63,23.06c0,.4.27.73.8,1a10.54,10.54,0,0,0,1.93.66,20,20,0,0,1,2.28.72,4.45,4.45,0,0,1,1.94,1.46,4,4,0,0,1,.79,2.55A4.12,4.12,0,0,1,95.65,33a7.18,7.18,0,0,1-4.31,1.24c-3.08,0-5.18-1.18-6.3-3.57l3.36-1.88a2.77,2.77,0,0,0,2.94,1.94c1.38,0,2.07-.42,2.07-1.28,0-.4-.26-.73-.79-1a10.62,10.62,0,0,0-1.94-.67A22.48,22.48,0,0,1,88.4,27a4.77,4.77,0,0,1-1.93-1.43,3.76,3.76,0,0,1-.8-2.45,4.2,4.2,0,0,1,1.64-3.49,6.4,6.4,0,0,1,4.06-1.28,6.8,6.8,0,0,1,3.33.83,6,6,0,0,1,2.37,2.35l-3.3,1.81a2.47,2.47,0,0,0-2.4-1.53,2.18,2.18,0,0,0-1.24.33A1,1,0,0,0,89.63,23.06Z"/><path class="cls-1" d="M106.9,18.38A5.45,5.45,0,0,1,111,20a6.24,6.24,0,0,1,1.6,4.56v9.2H108.7V25.07a3.08,3.08,0,0,0-.81-2.29,3,3,0,0,0-2.16-.8,3.16,3.16,0,0,0-2.4.94,3.85,3.85,0,0,0-.9,2.79V33.8H98.56v-21h3.87v7.68A5,5,0,0,1,106.9,18.38Z"/><path class="cls-2" d="M17.8,21.53A57.25,57.25,0,0,0,10.1,36.4c-.47,1.34-.87,2.68-1.22,4A32.61,32.61,0,0,1,5.46,0,57.08,57.08,0,0,1,17.8,21.53Z"/><path class="cls-2" d="M22.28,44.07A52.46,52.46,0,0,1,21.61,50a32.61,32.61,0,0,1-5.93-3.36A32.14,32.14,0,0,0,22.28,44.07Z"/><path class="cls-3" d="M22.4,38.45c0,1.2,0,2.41-.12,3.59a32.1,32.1,0,0,1-6.6,2.56,29.59,29.59,0,0,1-4.76-4.17c.34-1.35.75-2.69,1.22-4a56.94,56.94,0,0,1,7.7-14.87A56.53,56.53,0,0,1,22.4,38.45Z"/><path class="cls-2" d="M13.65,46.64a31.59,31.59,0,0,1-5.89,1,51.76,51.76,0,0,1,1.12-5.22A29.72,29.72,0,0,0,13.65,46.64Z"/><path class="cls-2" d="M40.06,21.73A32.44,32.44,0,0,1,24.32,40c.08-1.18.12-2.38.12-3.58a56.6,56.6,0,0,0-2.57-16.93A57,57,0,0,1,40.79,2.85,32.56,32.56,0,0,1,40.06,21.73Z"/></g></g></svg>